<svg xmlns="http://www.w3.org/2000/svg" xmlns:xlink="http://www.w3.org/1999/xlink" contentStyleType="text/css" data-diagram-type="DESCRIPTION" height="1427px" preserveAspectRatio="none" style="width:1015px;height:1427px;background:#FFFFFF;" version="1.1" viewBox="0 0 1015 1427" width="1015px" zoomAndPan="magnify"><?plantuml 1.2026.6?><defs/><g><!--cluster P1--><g class="cluster" data-qualified-name="P1" data-source-line="34" id="ent0001"><path d="M91,6.3936 L185.9971,6.3936 A3,3 0 0 1 187.9971,8.3936 L194.9971,33.0918 L611,33.0918 A2,2 0 0 1 613,35.0918 L613,408.3936 A2,2 0 0 1 611,410.3936 L91,410.3936 A2,2 0 0 1 89,408.3936 L89,8.3936 A2,2 0 0 1 91,6.3936" fill="#FCFCFC" style="stroke:#777777;stroke-width:1.5;"/><line style="stroke:#777777;stroke-width:1.5;" x1="89" x2="194.9971" y1="33.0918" y2="33.0918"/><text fill="#000000" font-family="'Times New Roman'" font-size="18" font-weight="700" lengthAdjust="spacing" textLength="92.9971" x="93" y="25.1982">Partitioning</text></g><!--cluster P2--><g class="cluster" data-qualified-name="P2" data-source-line="41" id="ent0006"><path d="M57,434.3936 L140.0264,434.3936 A3,3 0 0 1 142.0264,436.3936 L149.0264,461.0918 L363,461.0918 A2,2 0 0 1 365,463.0918 L365,700.8936 A2,2 0 0 1 363,702.8936 L57,702.8936 A2,2 0 0 1 55,700.8936 L55,436.3936 A2,2 0 0 1 57,434.3936" fill="#FCFCFC" style="stroke:#777777;stroke-width:1.5;"/><line style="stroke:#777777;stroke-width:1.5;" x1="55" x2="149.0264" y1="461.0918" y2="461.0918"/><text fill="#000000" font-family="'Times New Roman'" font-size="18" font-weight="700" lengthAdjust="spacing" textLength="81.0264" x="59" y="453.1982">Admission</text></g><!--cluster P3--><g class="cluster" data-qualified-name="P3" data-source-line="46" id="ent0009"><path d="M8,726.8936 L177.4668,726.8936 A3,3 0 0 1 179.4668,728.8936 L186.4668,753.5918 L635,753.5918 A2,2 0 0 1 637,755.5918 L637,880.8936 A2,2 0 0 1 635,882.8936 L8,882.8936 A2,2 0 0 1 6,880.8936 L6,728.8936 A2,2 0 0 1 8,726.8936" fill="#FCFCFC" style="stroke:#777777;stroke-width:1.5;"/><line style="stroke:#777777;stroke-width:1.5;" x1="6" x2="186.4668" y1="753.5918" y2="753.5918"/><text fill="#000000" font-family="'Times New Roman'" font-size="18" font-weight="700" lengthAdjust="spacing" textLength="167.4668" x="10" y="745.6982">Recorded provenance</text></g><!--cluster P4--><g class="cluster" data-qualified-name="P4" data-source-line="51" id="ent0012"><path d="M219,906.8936 L401.5186,906.8936 A3,3 0 0 1 403.5186,908.8936 L410.5186,933.5918 L465,933.5918 A2,2 0 0 1 467,935.5918 L467,1155.8936 A2,2 0 0 1 465,1157.8936 L219,1157.8936 A2,2 0 0 1 217,1155.8936 L217,908.8936 A2,2 0 0 1 219,906.8936" fill="#FCFCFC" style="stroke:#777777;stroke-width:1.5;"/><line style="stroke:#777777;stroke-width:1.5;" x1="217" x2="410.5186" y1="933.5918" y2="933.5918"/><text fill="#000000" font-family="'Times New Roman'" font-size="18" font-weight="700" lengthAdjust="spacing" textLength="180.5186" x="221" y="925.6982">On-demand assessment</text></g><!--entity CORPUS--><g class="entity" data-qualified-name="P1.CORPUS" data-source-line="35" id="ent0002"><path d="M287.5,55.3936 C287.5,45.3936 353.2148,45.3936 353.2148,45.3936 C353.2148,45.3936 418.9297,45.3936 418.9297,55.3936 L418.9297,103.4902 C418.9297,113.4902 353.2148,113.4902 353.2148,113.4902 C353.2148,113.4902 287.5,113.4902 287.5,103.4902 L287.5,55.3936" fill="#FFFFFF" style="stroke:#333333;stroke-width:0.5;"/><path d="M287.5,55.3936 C287.5,65.3936 353.2148,65.3936 353.2148,65.3936 C353.2148,65.3936 418.9297,65.3936 418.9297,55.3936" fill="none" style="stroke:#333333;stroke-width:0.5;"/><text fill="#000000" font-family="'Times New Roman'" font-size="17" lengthAdjust="spacing" textLength="100.564" x="297.5" y="85.2646">Sample corpus</text><text fill="#000000" font-family="'Times New Roman'" font-size="17" lengthAdjust="spacing" textLength="111.4297" x="297.5" y="104.813">samples, signers</text></g><!--entity GEN--><g class="entity" data-qualified-name="P1.GEN" data-source-line="36" id="ent0003"><rect fill="#FFFFFF" height="49.5483" rx="2" ry="2" style="stroke:#333333;stroke-width:0.5;" width="140.5557" x="282.5" y="178.3936"/><rect fill="#FFFFFF" height="10" style="stroke:#333333;stroke-width:0.5;" width="15" x="403.0557" y="183.3936"/><rect fill="#FFFFFF" height="2" style="stroke:#333333;stroke-width:0.5;" width="4" x="401.0557" y="185.3936"/><rect fill="#FFFFFF" height="2" style="stroke:#333333;stroke-width:0.5;" width="4" x="401.0557" y="189.3936"/><text fill="#000000" font-family="'Times New Roman'" font-size="17" lengthAdjust="spacing" textLength="100.5557" x="297.5" y="214.2646">Split generator</text></g><!--entity SPLITDIR--><g class="entity" data-qualified-name="P1.SPLITDIR" data-source-line="37" id="ent0004"><rect fill="#FFFFFF" height="62.0967" rx="2" ry="2" style="stroke:#333333;stroke-width:0.5;" width="212.7085" x="383.5" y="312.8936"/><polygon fill="#FFFFFF" points="579.2085,317.8936,579.2085,331.8936,591.2085,331.8936,591.2085,323.8936,585.2085,317.8936,579.2085,317.8936" style="stroke:#333333;stroke-width:0.5;stroke-linejoin:miter;stroke-miterlimit:10;"/><line style="stroke:#333333;stroke-width:0.5;" x1="585.2085" x2="585.2085" y1="317.8936" y2="323.8936"/><line style="stroke:#333333;stroke-width:0.5;" x1="591.2085" x2="585.2085" y1="323.8936" y2="323.8936"/><text fill="#000000" font-family="'Times New Roman'" font-size="17" lengthAdjust="spacing" textLength="169.0122" x="393.5" y="341.7646">Versioned split directory</text><text fill="#000000" font-family="'Times New Roman'" font-size="17" lengthAdjust="spacing" textLength="182.7085" x="393.5" y="361.313">train.csv / val.csv / test.csv</text></g><!--entity META--><g class="entity" data-qualified-name="P1.META" data-source-line="38" id="ent0005"><rect fill="#FFFFFF" height="101.1934" rx="2" ry="2" style="stroke:#333333;stroke-width:0.5;" width="223.1011" x="105.5" y="293.3936"/><polygon fill="#FFFFFF" points="311.6011,298.3936,311.6011,312.3936,323.6011,312.3936,323.6011,304.3936,317.6011,298.3936,311.6011,298.3936" style="stroke:#333333;stroke-width:0.5;stroke-linejoin:miter;stroke-miterlimit:10;"/><line style="stroke:#333333;stroke-width:0.5;" x1="317.6011" x2="317.6011" y1="298.3936" y2="304.3936"/><line style="stroke:#333333;stroke-width:0.5;" x1="323.6011" x2="317.6011" y1="304.3936" y2="304.3936"/><text fill="#000000" font-family="'Times New Roman'" font-size="17" lengthAdjust="spacing" textLength="131.7251" x="115.5" y="322.2646">split_metadata.json</text><text fill="#000000" font-family="'Times New Roman'" font-size="17" lengthAdjust="spacing" textLength="189.3574" x="115.5" y="341.813">split_mode, signer_disjoint,</text><text fill="#000000" font-family="'Times New Roman'" font-size="17" lengthAdjust="spacing" textLength="193.1011" x="115.5" y="361.3613">signers per partition, counts,</text><text fill="#000000" font-family="'Times New Roman'" font-size="17" lengthAdjust="spacing" textLength="127.4336" x="115.5" y="380.9097">valid_for_research</text></g><!--entity G1--><g class="entity" data-qualified-name="P2.G1" data-source-line="42" id="ent0007"><rect fill="#FFFFFF" height="69.0967" rx="2" ry="2" style="stroke:#333333;stroke-width:0.5;" width="201.4585" x="116.5" y="473.3936"/><rect fill="#FFFFFF" height="10" style="stroke:#333333;stroke-width:0.5;" width="15" x="297.9585" y="478.3936"/><rect fill="#FFFFFF" height="2" style="stroke:#333333;stroke-width:0.5;" width="4" x="295.9585" y="480.3936"/><rect fill="#FFFFFF" height="2" style="stroke:#333333;stroke-width:0.5;" width="4" x="295.9585" y="484.3936"/><text fill="#000000" font-family="'Times New Roman'" font-size="17" lengthAdjust="spacing" textLength="161.4585" x="131.5" y="509.2646">Gate 1 &#8212; Backend API</text><text fill="#000000" font-family="'Times New Roman'" font-size="17" lengthAdjust="spacing" textLength="120.8428" x="131.5" y="528.813">_research_splits()</text></g><!--entity G2--><g class="entity" data-qualified-name="P2.G2" data-source-line="43" id="ent0008"><rect fill="#FFFFFF" height="69.0967" rx="2" ry="2" style="stroke:#333333;stroke-width:0.5;" width="276.9375" x="71.5" y="617.8936"/><rect fill="#FFFFFF" height="10" style="stroke:#333333;stroke-width:0.5;" width="15" x="328.4375" y="622.8936"/><rect fill="#FFFFFF" height="2" style="stroke:#333333;stroke-width:0.5;" width="4" x="326.4375" y="624.8936"/><rect fill="#FFFFFF" height="2" style="stroke:#333333;stroke-width:0.5;" width="4" x="326.4375" y="628.8936"/><text fill="#000000" font-family="'Times New Roman'" font-size="17" lengthAdjust="spacing" textLength="199.2104" x="86.5" y="653.7646">Gate 2 &#8212; Trainer subprocess</text><text fill="#000000" font-family="'Times New Roman'" font-size="17" lengthAdjust="spacing" textLength="236.9375" x="86.5" y="673.313">_enforce_research_preconditions()</text></g><!--entity PROV--><g class="entity" data-qualified-name="P3.PROV" data-source-line="47" id="ent0010"><path d="M391,792.3936 C391,782.3936 506.0464,782.3936 506.0464,782.3936 C506.0464,782.3936 621.0928,782.3936 621.0928,792.3936 L621.0928,840.4902 C621.0928,850.4902 506.0464,850.4902 506.0464,850.4902 C506.0464,850.4902 391,850.4902 391,840.4902 L391,792.3936" fill="#FFFFFF" style="stroke:#333333;stroke-width:0.5;"/><path d="M391,792.3936 C391,802.3936 506.0464,802.3936 506.0464,802.3936 C506.0464,802.3936 621.0928,802.3936 621.0928,792.3936" fill="none" style="stroke:#333333;stroke-width:0.5;"/><text fill="#000000" font-family="'Times New Roman'" font-size="17" lengthAdjust="spacing" textLength="210.0928" x="401" y="822.2646">training_jobs.split_provenance</text><text fill="#000000" font-family="'Times New Roman'" font-size="17" lengthAdjust="spacing" textLength="36.8389" x="401" y="841.813">jsonb</text></g><!--entity CONTRACT--><g class="entity" data-qualified-name="P3.CONTRACT" data-source-line="48" id="ent0011"><rect fill="#FFFFFF" height="101.1934" rx="2" ry="2" style="stroke:#333333;stroke-width:0.5;" width="312.7827" x="22.5" y="765.8936"/><polygon fill="#FFFFFF" points="318.2827,770.8936,318.2827,784.8936,330.2827,784.8936,330.2827,776.8936,324.2827,770.8936,318.2827,770.8936" style="stroke:#333333;stroke-width:0.5;stroke-linejoin:miter;stroke-miterlimit:10;"/><line style="stroke:#333333;stroke-width:0.5;" x1="324.2827" x2="324.2827" y1="770.8936" y2="776.8936"/><line style="stroke:#333333;stroke-width:0.5;" x1="330.2827" x2="324.2827" y1="776.8936" y2="776.8936"/><text fill="#000000" font-family="'Times New Roman'" font-size="17" lengthAdjust="spacing" textLength="179.3882" x="32.5" y="794.7646">Checkpoint contract fields</text><text fill="#000000" font-family="'Times New Roman'" font-size="17" lengthAdjust="spacing" textLength="206.3242" x="32.5" y="814.313">dataset_version, split_version,</text><text fill="#000000" font-family="'Times New Roman'" font-size="17" lengthAdjust="spacing" textLength="281.8447" x="32.5" y="833.8613">dataset_manifest_checksum, git_commit,</text><text fill="#000000" font-family="'Times New Roman'" font-size="17" lengthAdjust="spacing" textLength="282.7827" x="32.5" y="853.4097">runtime environment, recognition_profile</text></g><!--entity EVAL--><g class="entity" data-qualified-name="P4.EVAL" data-source-line="52" id="ent0013"><rect fill="#FFFFFF" height="69.0967" rx="2" ry="2" style="stroke:#333333;stroke-width:0.5;" width="191.0327" x="246.5" y="945.8936"/><rect fill="#FFFFFF" height="10" style="stroke:#333333;stroke-width:0.5;" width="15" x="417.5327" y="950.8936"/><rect fill="#FFFFFF" height="2" style="stroke:#333333;stroke-width:0.5;" width="4" x="415.5327" y="952.8936"/><rect fill="#FFFFFF" height="2" style="stroke:#333333;stroke-width:0.5;" width="4" x="415.5327" y="956.8936"/><text fill="#000000" font-family="'Times New Roman'" font-size="17" lengthAdjust="spacing" textLength="151.0327" x="261.5" y="981.7646">evaluate_checkpoint()</text><text fill="#000000" font-family="'Times New Roman'" font-size="17" lengthAdjust="spacing" textLength="122.2788" x="261.5" y="1001.313">criteria C1 to C14</text></g><!--entity VERDICT--><g class="entity" data-qualified-name="P4.VERDICT" data-source-line="53" id="ent0014"><rect fill="#FFFFFF" height="62.0967" rx="2" ry="2" style="stroke:#333333;stroke-width:0.5;" width="217.1411" x="233.5" y="1079.8936"/><polygon fill="#FFFFFF" points="433.6411,1084.8936,433.6411,1098.8936,445.6411,1098.8936,445.6411,1090.8936,439.6411,1084.8936,433.6411,1084.8936" style="stroke:#333333;stroke-width:0.5;stroke-linejoin:miter;stroke-miterlimit:10;"/><line style="stroke:#333333;stroke-width:0.5;" x1="439.6411" x2="439.6411" y1="1084.8936" y2="1090.8936"/><line style="stroke:#333333;stroke-width:0.5;" x1="445.6411" x2="439.6411" y1="1090.8936" y2="1090.8936"/><text fill="#000000" font-family="'Times New Roman'" font-size="17" lengthAdjust="spacing" textLength="50.9751" x="243.5" y="1108.7646">Verdict</text><text fill="#000000" font-family="'Times New Roman'" font-size="17" lengthAdjust="spacing" textLength="187.1411" x="243.5" y="1128.313">valid | invalid | undecidable</text></g><g class="entity" data-qualified-name="GMN25" data-source-line="70" id="ent0026"><path d="M651.5,300.8936 L651.5,301.8936 L328.7,305.8936 L651.5,309.8936 L651.5,387.3867 A2,2 0 0 0 653.5,389.3867 L998.6729,389.3867 A2,2 0 0 0 1000.6729,387.3867 L1000.6729,308.8936 L990.6729,298.8936 L653.5,298.8936 A2,2 0 0 0 651.5,300.8936" fill="#FAFAFA" style="stroke:#999999;stroke-width:0.5;"/><path d="M990.6729,298.8936 L990.6729,307.8936 A1,1 0 0 0 991.6729,308.8936 L1000.6729,308.8936 L990.6729,298.8936" fill="#FAFAFA" style="stroke:#999999;stroke-width:0.5;"/><text fill="#000000" font-family="'Times New Roman'" font-size="14" lengthAdjust="spacing" textLength="310.6113" x="657.5" y="316.9639">The generator writes train.csv, val.csv and test.csv over</text><text fill="#000000" font-family="'Times New Roman'" font-size="14" font-weight="700" lengthAdjust="spacing" textLength="131.0586" x="657.5" y="333.0625">disjoint sets of signers</text><text fill="#000000" font-family="'Times New Roman'" font-size="14" lengthAdjust="spacing" textLength="178.0557" x="788.5586" y="333.0625">, and records which signer went</text><text fill="#000000" font-family="'Times New Roman'" font-size="14" lengthAdjust="spacing" textLength="171.0693" x="657.5" y="349.1611">where. Disjointness covers the</text><text fill="#000000" font-family="'Times New Roman'" font-size="14" font-weight="700" lengthAdjust="spacing" textLength="59.9033" x="832.0693" y="349.1611">validation</text><text fill="#000000" font-family="'Times New Roman'" font-size="14" lengthAdjust="spacing" textLength="90.2002" x="895.4727" y="349.1611">partition as well</text><text fill="#000000" font-family="'Times New Roman'" font-size="14" lengthAdjust="spacing" textLength="326.1836" x="657.5" y="365.2598">as the test partition, so model selection never sees a signer</text><text fill="#000000" font-family="'Times New Roman'" font-size="14" lengthAdjust="spacing" textLength="201.3867" x="657.5" y="381.3584">that is later used to report the result.</text></g><g class="entity" data-qualified-name="GMN28" data-source-line="78" id="ent0029"><path d="M381,464.8936 L381,503.8936 L317.65,507.8936 L381,511.8936 L381,551.3867 A2,2 0 0 0 383,553.3867 L725.124,553.3867 A2,2 0 0 0 727.124,551.3867 L727.124,472.8936 L717.124,462.8936 L383,462.8936 A2,2 0 0 0 381,464.8936" fill="#FAFAFA" style="stroke:#999999;stroke-width:0.5;"/><path d="M717.124,462.8936 L717.124,471.8936 A1,1 0 0 0 718.124,472.8936 L727.124,472.8936 L717.124,462.8936" fill="#FAFAFA" style="stroke:#999999;stroke-width:0.5;"/><text fill="#000000" font-family="'Times New Roman'" font-size="14" lengthAdjust="spacing" textLength="310.2422" x="387" y="480.9639">Gate 1 offers only flat, research-valid splits. LOSO and</text><text fill="#000000" font-family="'Times New Roman'" font-size="14" lengthAdjust="spacing" textLength="320.6943" x="387" y="497.0625">matched-leak fold sets are deliberately withheld: they are</text><text fill="#000000" font-family="'Times New Roman'" font-size="14" lengthAdjust="spacing" textLength="313.7764" x="387" y="513.1611">multi-run evaluation protocols, not a single training job.</text><text fill="#000000" font-family="'Times New Roman'" font-size="14" lengthAdjust="spacing" textLength="325.124" x="387" y="529.2598">Splits flagged valid_for_research = false are withheld too,</text><text fill="#000000" font-family="'Times New Roman'" font-size="14" lengthAdjust="spacing" textLength="239.8457" x="387" y="545.3584">because Gate 2 would reject them anyway.</text></g><g class="entity" data-qualified-name="GMN31" data-source-line="86" id="ent0032"><path d="M136.5,1208.8936 L136.5,1263.1895 A2,2 0 0 0 138.5,1265.1895 L545.0869,1265.1895 A2,2 0 0 0 547.0869,1263.1895 L547.0869,1216.8936 L537.0869,1206.8936 L346,1206.8936 L342,1142.1136 L338,1206.8936 L138.5,1206.8936 A2,2 0 0 0 136.5,1208.8936" fill="#FAFAFA" style="stroke:#999999;stroke-width:0.5;"/><path d="M537.0869,1206.8936 L537.0869,1215.8936 A1,1 0 0 0 538.0869,1216.8936 L547.0869,1216.8936 L537.0869,1206.8936" fill="#FAFAFA" style="stroke:#999999;stroke-width:0.5;"/><text fill="#000000" font-family="'Times New Roman'" font-size="14" lengthAdjust="spacing" textLength="389.1084" x="142.5" y="1224.9639">Three-valued, fail-closed. A criterion that cannot be decided from the</text><text fill="#000000" font-family="'Times New Roman'" font-size="14" lengthAdjust="spacing" textLength="78.9004" x="142.5" y="1241.0625">artefact yields</text><text fill="#000000" font-family="'Times New Roman'" font-size="14" font-weight="700" lengthAdjust="spacing" textLength="72.3516" x="224.9004" y="1241.0625">undecidable</text><text fill="#000000" font-family="'Times New Roman'" font-size="14" lengthAdjust="spacing" textLength="234.835" x="297.252" y="1241.0625">, but only when no criterion has definitely</text><text fill="#000000" font-family="'Times New Roman'" font-size="14" lengthAdjust="spacing" textLength="340.915" x="142.5" y="1257.1611">failed; a definite failure always outranks an undecidable one.</text></g><!--link CORPUS to GEN--><g class="link" data-entity-1="ent0002" data-entity-2="ent0003" data-link-type="dependency" data-source-line="56" id="lnk15"><path d="M353,113.6036 C353,134.1036 353,154.7236 353,173.3436" fill="none" id="CORPUS-to-GEN" style="stroke:#333333;stroke-width:1;"/><polygon fill="#333333" points="353,178.3436,357,169.3436,353,173.3436,349,169.3436,353,178.3436" style="stroke:#333333;stroke-width:1;stroke-linejoin:miter;stroke-miterlimit:10;"/></g><!--link GEN to SPLITDIR--><g class="link" data-entity-1="ent0003" data-entity-2="ent0004" data-link-type="dependency" data-source-line="57" id="lnk16"><path d="M403.5,228.5136 C403.5,252.1136 403.5,282.4936 403.5,307.8536" fill="none" id="GEN-to-SPLITDIR" style="stroke:#333333;stroke-width:1;"/><polygon fill="#333333" points="403.5,312.8536,407.5,303.8536,403.5,307.8536,399.5,303.8536,403.5,312.8536" style="stroke:#333333;stroke-width:1;stroke-linejoin:miter;stroke-miterlimit:10;"/></g><!--link GEN to META--><g class="link" data-entity-1="ent0003" data-entity-2="ent0005" data-link-type="dependency" data-source-line="58" id="lnk17"><path d="M305.5,228.5136 C305.5,246.5036 305.5,266.3536 305.5,288.3836" fill="none" id="GEN-to-META" style="stroke:#333333;stroke-width:1;"/><polygon fill="#333333" points="305.5,293.3836,309.5,284.3836,305.5,288.3836,301.5,284.3836,305.5,293.3836" style="stroke:#333333;stroke-width:1;stroke-linejoin:miter;stroke-miterlimit:10;"/></g><!--link META to G1--><g class="link" data-entity-1="ent0005" data-entity-2="ent0007" data-link-type="dependency" data-source-line="60" id="lnk18"><path d="M217,394.4336 C217,420.0336 217,445.4536 217,468.3536" fill="none" id="META-to-G1" style="stroke:#333333;stroke-width:1;"/><polygon fill="#333333" points="217,473.3536,221,464.3536,217,468.3536,213,464.3536,217,473.3536" style="stroke:#333333;stroke-width:1;stroke-linejoin:miter;stroke-miterlimit:10;"/></g><!--link G1 to G2--><g class="link" data-entity-1="ent0007" data-entity-2="ent0008" data-link-type="dependency" data-source-line="61" id="lnk19"><path d="M217,542.5036 C217,565.2136 217,589.8136 217,612.5636" fill="none" id="G1-to-G2" style="stroke:#333333;stroke-width:1;"/><polygon fill="#333333" points="217,617.5636,221,608.5636,217,612.5636,213,608.5636,217,617.5636" style="stroke:#333333;stroke-width:1;stroke-linejoin:miter;stroke-miterlimit:10;"/></g><!--link G2 to PROV--><g class="link" data-entity-1="ent0008" data-entity-2="ent0010" data-link-type="dependency" data-source-line="62" id="lnk20"><path d="M342,687.2836 C342,735.5636 342,816.8936 342,816.8936 C342,816.8936 358.41,816.8936 385.76,816.8936" fill="none" id="G2-to-PROV" style="stroke:#333333;stroke-width:1;"/><polygon fill="#333333" points="390.76,816.8936,381.76,812.8936,385.76,816.8936,381.76,820.8936,390.76,816.8936" style="stroke:#333333;stroke-width:1;stroke-linejoin:miter;stroke-miterlimit:10;"/><text fill="#000000" font-family="'Times New Roman'" font-size="14" lengthAdjust="spacing" textLength="34.1797" x="343" y="772.5339">freeze</text></g><!--link G2 to CONTRACT--><g class="link" data-entity-1="ent0008" data-entity-2="ent0011" data-link-type="dependency" data-source-line="63" id="lnk21"><path d="M203.5,687.1736 C203.5,710.0236 203.5,735.2936 203.5,760.7836" fill="none" id="G2-to-CONTRACT" style="stroke:#333333;stroke-width:1;"/><polygon fill="#333333" points="203.5,765.7836,207.5,756.7836,203.5,760.7836,199.5,756.7836,203.5,765.7836" style="stroke:#333333;stroke-width:1;stroke-linejoin:miter;stroke-miterlimit:10;"/><text fill="#000000" font-family="'Times New Roman'" font-size="14" lengthAdjust="spacing" textLength="33.4414" x="169.5" y="722.5539">stamp</text></g><!--link PROV to EVAL--><g class="link" data-entity-1="ent0010" data-entity-2="ent0013" data-link-type="dependency" data-source-line="65" id="lnk22"><path d="M414.25,850.7736 C414.25,878.6736 414.25,912.8136 414.25,940.7736" fill="none" id="PROV-to-EVAL" style="stroke:#333333;stroke-width:1;"/><polygon fill="#333333" points="414.25,945.7736,418.25,936.7736,414.25,940.7736,410.25,936.7736,414.25,945.7736" style="stroke:#333333;stroke-width:1;stroke-linejoin:miter;stroke-miterlimit:10;"/></g><!--link CONTRACT to EVAL--><g class="link" data-entity-1="ent0011" data-entity-2="ent0013" data-link-type="dependency" data-source-line="66" id="lnk23"><path d="M291,866.9336 C291,892.5336 291,917.9536 291,940.8536" fill="none" id="CONTRACT-to-EVAL" style="stroke:#333333;stroke-width:1;"/><polygon fill="#333333" points="291,945.8536,295,936.8536,291,940.8536,287,936.8536,291,945.8536" style="stroke:#333333;stroke-width:1;stroke-linejoin:miter;stroke-miterlimit:10;"/></g><!--link EVAL to VERDICT--><g class="link" data-entity-1="ent0013" data-entity-2="ent0014" data-link-type="dependency" data-source-line="67" id="lnk24"><path d="M342,1015.0236 C342,1035.1036 342,1055.2036 342,1074.6736" fill="none" id="EVAL-to-VERDICT" style="stroke:#333333;stroke-width:1;"/><polygon fill="#333333" points="342,1079.6736,346,1070.6736,342,1074.6736,338,1070.6736,342,1079.6736" style="stroke:#333333;stroke-width:1;stroke-linejoin:miter;stroke-miterlimit:10;"/></g><g class="legend" data-source-line="91"><rect fill="#FAFAFA" height="122.6904" rx="2" ry="2" style="stroke:#999999;stroke-width:1;" width="659.8721" x="174.4004" y="1286.1895"/><text fill="#000000" font-family="'Times New Roman'" font-size="14" lengthAdjust="spacing" textLength="640.3701" x="179.4004" y="1304.2598">What the fourteen criteria cover &#8212; C1 run intent (research, not the smoke_test default) | C2, C3 augmentation and</text><text fill="#000000" font-family="'Times New Roman'" font-size="14" lengthAdjust="spacing" textLength="649.8721" x="179.4004" y="1320.3584">checkpoint contract fields | C4, C5 dataset and split versioning plus manifest checksum | C6, C7, C12 split metadata</text><text fill="#000000" font-family="'Times New Roman'" font-size="14" lengthAdjust="spacing" textLength="582.8594" x="179.4004" y="1336.457">present, research-valid, and a non-empty test set | C8, C9 recognition profile matches the labels, with no</text><text fill="#000000" font-family="'Times New Roman'" font-size="14" lengthAdjust="spacing" textLength="635.8311" x="179.4004" y="1352.5557">cross-profile leakage | C10, C11 runtime environment and git commit recorded | C13, C14 metrics taken from the</text><text fill="#000000" font-family="'Times New Roman'" font-size="14" lengthAdjust="spacing" textLength="336.6768" x="179.4004" y="1368.6543">restored best-validation checkpoint of a run that did not fail.</text><text fill="#000000" font-family="'Times New Roman'" font-size="14" lengthAdjust="spacing" textLength="613.9082" x="179.4004" y="1384.7529">The assessment is never run inside training: it reads the stored checkpoint only when a user asks for it, and its</text><text fill="#000000" font-family="'Times New Roman'" font-size="14" lengthAdjust="spacing" textLength="250.79" x="179.4004" y="1400.8516">outcome is not written back to training_jobs.</text></g><?plantuml-src XLVhJYCt5FwVfpYYFnQY93HSzbQrKXfOXCG20fR-GOgS6ISnpDWZsqEKRIlr8Vg4VP9-nvwP326x6yGeOv_xvJidR-XMpRMq_NEToaBYeJsTFeki55uPJKAdT6tDizH29v9Ef0Dvvmrz-Nn11uDZ6fkyC9gPJfIOMv4JQ2tvXIHXlPo9n5Eo44eFm7GlhPefcPAOuyHvAgn9f7CotNT5fhpR1w-3MhVVZIUJN7gH2Yy6Zyxe7cHCHV84C_T5KUnRKtemx7iBSKhF1yMATYTMEYbiifX4cJsQ58q3asGXaoUt1q7icKkiAg2sOO7ZAbL-5IJ968QAgJ1A-nwDX_tny6XlqEcu9wKBmIwdyBFC_2UZ_QN89UtSgLmwkfHBkZ6vq3lRQM_LLqd3TwrBjn2fMS8JcedCoTPDfhJqgqAIiNvXMXU8WKuJOv53EcgTQvF2gOAEZzl4GZ_nuTlsuSXQinoRp5ZwwJ1yDY_NnhOrDAd_7IcP1pigAP_2PokfiQcqtrBMa6sFpiXwnGNrOtqDvNVLdQ2kfiB97yjhAByhxnfon7oBk37_RI5iItiNFg-9rg5u_urBlyeaJKsMjkulZTzYnuZ_DgdQHdm8dmsAxTc_a7EquOzrL7JVrH9fsdewHNIGTgu18ugX25snGyBHzP3-x12bLKfevrRa1IA07YXAzw1TU4NRkm1iBZ2Dhswklzo2BMdmQkUMuO6WMLhXZGrqPwUN819L-T3EVSGZG5O04qgLbGc8LmywWCuWSS-qJm2AwfkNplFN8Ets-kByxkJyveN8BRW6e-CXUhQsUv8gznWW1xVH4ohGuqKTZnvyAJNmxK47r9hCZ6smBwZ_V7etwlpTYkKepPLZVs8W3q8WMn4v0zZHaFxxvr_wFS8iZQxF7_GcfExknM0Djx0V1FOx3WwiTUMqmdX8aHec0eCRQGM2QNGQt6c47hmm-GOKA9sKrXWUZJ_Sg89w1amUpTGDOZpNF0-QupoDh3TNzoyoCcxW7TvmNd68CPMbC9eLEEadrM3gnJfeNjS4W7arG_Ah2LFcFPg34E795UVG8bUO2YJrix96vvA72Vi_ry5_DdQcCbcLw-NTpMXyzo8KLxgVofp7bi38T8v5H8UEDXEvPNBjxZreJ3lCIoKmnCWRF8y2_-dzw6ApwbEL-Agmw2zIpJTqkanKAgQLfVUdDoVdqT3OOzJ71DFztq8huRzvRvgXVHXAjCFFDT-mSpPSlnrqpWwQDquTVQIPbVAhR5_K0SEbym20JYUGrjV1muRcnIa_cfFQcuu6xf5LyuKdCujM4jrXgMdWWfOSJ4SD3FGQ5E0KrJWGrY7mThjrFnEgnR7KggkxtLxWiA7I7IqNAbbKbxH4Ei6zN4Wh1rYneWYDx2FTN8HXq-fsGth2njRjhY624xIKMSR9ZPHiLXj2d246dGn6PG0svj6I5pWduPkep02_NmXFob66gh9KOcNZ2hAom3uI9AEfiTOCEWmQ7BtD60Qmg036p6Pikj7PYcQGo8qG8Q4Vwop2p80khcwlE3XWpOL7CQVzJ8edcc7QnJWAAx5IPMhAMP6GjrH-iK3lVcIhLdpFp31DzT629DUhBHhEcyHa61KmDJYhvnWaDP8Ga6G0vZ0d71iwdyFjrs1BlyPrBHXJwqTuJ0_SKva8X8igS5oQCkDSFoBQR64EzrPBiNeLkAdntkGSkReekG1H-1oYKgOzw5HPFyaCSZ6W4LND3ST2hXAXsQifXmSD2yDd5lAWChPwNCrN0UPGGAs-veASbZwc1vM7aZ0jwGkK4fPOX8ZZ3M5iXqn_GG3hut1K8XWYWsj8TEd3vWbVsm023RBjTnRMWCfp2Fw3_U3QcfaI1iEG1i12yOT90oZZlA8h6Fbswvp4d3ApoysJd8J2htRlFU3O-02h_269SiumslpMOHZzvZHWjYEm7LC5-l4tH5WCge70PLDafQDw750z3fZvBPZVyK-8WughtWAWjc3BzQjMYDWWu8tkoxpmgzZ2h1m2tqFOX_OKeMgALEqIcpuJKybLpgK9GUoZDSxrQrfkAPum43ZycSqB8TsSLi4GZ3IA8wt2Ava6jaDcEs9_h4gWLM1vQ1SSd09cWdYAB_qrMhMZZL8N8PUXVbCLoYAKqg02t_NSOoYAG1MJxr3XJUD-f62UIAFxbUQsfgQo1KEPXM0K9reQZ37WQ7ZeHDt2MHcKmHH6V5HP-0dAwFTovU12ZXNS-Hy0?></g></svg>